<svg width="110" height="27" viewBox="0 0 618 152" xmlns="http://www.w3.org/2000/svg" xmlns:xlink="http://www.w3.org/1999/xlink"><defs><path d="M359.236 132.56a33.047 33.047 0 0 1-7.062-.738 15.58 15.58 0 0 1-5.218-1.965l2.216-14.65a17.853 17.853 0 0 0 8.102 1.84 10.207 10.207 0 0 0 7.553-2.89c1.917-1.926 3.983-5.555 6.2-10.887l2.215-5.287-26.143-59.3h18.523l16.585 42.202 15.35-42.202h18.303l-27.394 65.95c-3.028 7.293-5.954 12.941-8.78 16.946-2.824 4.005-5.832 6.829-9.024 8.473a24.179 24.179 0 0 1-11.426 2.507zM319.857.615h17.28v101.239h-17.28V.615zM281.975 103.49c-7.375 0-13.82-1.327-19.334-3.982a29.62 29.62 0 0 1-12.864-11.642c-3.073-5.083-4.607-11.082-4.601-17.995a36.9 36.9 0 0 1 3.975-17.25 29.988 29.988 0 0 1 11.316-12.082 32.349 32.349 0 0 1 17.034-4.423 31.638 31.638 0 0 1 15.731 3.796 26.532 26.532 0 0 1 10.522 10.904c2.531 4.739 3.794 10.345 3.789 16.818a41.324 41.324 0 0 1-.618 7.473h-44.63c2.147 9.46 9.317 14.194 21.507 14.2 3.74.006 7.468-.392 11.122-1.186 3.386-.701 6.667-1.84 9.76-3.39l1.742 13.557a39.3 39.3 0 0 1-10.918 3.838 65.174 65.174 0 0 1-13.533 1.364zm9.033-40.474c-.412-4.4-1.84-7.789-4.288-10.167-2.447-2.378-5.7-3.561-9.76-3.55a13.949 13.949 0 0 0-9.82 3.55c-2.57 2.361-4.228 5.75-4.973 10.167h28.841zm-80.686 40.474a54.25 54.25 0 0 1-13.676-1.695c-4.314-1.13-7.63-2.603-9.947-4.422l2.115-14.073a36.516 36.516 0 0 0 9.887 4.609 36.884 36.884 0 0 0 10.876 1.745c7.049 0 10.57-1.785 10.564-5.354a4.925 4.925 0 0 0-2.233-4.364c-1.497-.991-4.6-2.16-9.303-3.482-7.46-2.079-12.785-4.716-15.977-7.913-3.191-3.197-4.787-7.493-4.787-12.887 0-6.067 2.281-10.842 6.842-14.327 4.562-3.486 10.823-5.222 18.785-5.211 3.935.005 7.857.463 11.689 1.364a33.355 33.355 0 0 1 9.574 3.618l-2.03 13.7a35.055 35.055 0 0 0-8.89-3.55 38.3 38.3 0 0 0-9.633-1.28c-6.055 0-9.08 1.619-9.075 4.855a4.985 4.985 0 0 0 2.174 4.296c1.443 1.045 4.325 2.175 8.644 3.389 7.95 2.333 13.563 5.072 16.839 8.218 3.276 3.147 4.914 7.524 4.914 13.133a16.827 16.827 0 0 1-7.274 14.403c-4.843 3.491-11.536 5.234-20.078 5.228zm-44.107-78.338a10.021 10.021 0 0 1-7.4-2.923 9.727 9.727 0 0 1-2.927-7.167 9.506 9.506 0 0 1 2.926-7.092 10.98 10.98 0 0 1 14.793 0 9.54 9.54 0 0 1 2.926 7.092 9.693 9.693 0 0 1-2.926 7.227 10.14 10.14 0 0 1-7.392 2.863zm-8.568 12.955h17.28v63.748h-17.28V38.107zm-51.16 65.383a27.873 27.873 0 0 1-14.979-4.11 28.451 28.451 0 0 1-10.513-11.768 38.785 38.785 0 0 1-3.848-17.623 37.512 37.512 0 0 1 3.79-16.877 31.332 31.332 0 0 1 10.74-12.328 27.495 27.495 0 0 1 15.664-4.668c4.073-.055 8.1.863 11.748 2.677a21.157 21.157 0 0 1 8.39 7.532l.253-8.218h16.552v63.392H127.75l-.253-8.091a20.673 20.673 0 0 1-8.576 7.532 28.57 28.57 0 0 1-12.433 2.55zm4.72-15.395a15.684 15.684 0 0 0 12.06-5.083c3.152-3.39 4.728-7.79 4.728-13.2 0-5.412-1.554-9.795-4.66-13.15a16.968 16.968 0 0 0-12.125-5.1c-4.56 0-8.93 1.838-12.124 5.1-3.1 3.389-4.654 7.75-4.66 13.082-.006 5.332 1.57 9.732 4.728 13.2a15.684 15.684 0 0 0 12.052 5.151zM.756 6.843h30.71c10.86 0 19.396 2.677 25.61 8.032 6.214 5.355 9.315 12.726 9.303 22.114a28.073 28.073 0 0 1-4.102 15.005A30.417 30.417 0 0 1 50.59 62.77l25.238 38.728H54.464l-20.299-34c-1.412.084-2.596.143-3.544.186-.947.042-1.852.068-2.672.068H18.94v33.746H.757V6.843zm18.184 45.583h9.304c13.008 0 19.514-5.107 19.52-15.319 0-4.897-1.596-8.61-4.787-11.141-3.191-2.53-7.897-3.799-14.116-3.804h-9.92v30.264z" id="a"></path><path d="M34.152 123.478l41.923-47.266 41.671 47.356c-11.152 9.801-25.761 15.763-41.744 15.763-16.033 0-30.681-5.995-41.85-15.853m41.85-110.814c34.92 0 63.334 28.413 63.334 63.334 0 14.367-4.82 27.624-12.904 38.259L76.115 57.082l-50.627 57.073c-8.04-10.617-12.82-23.835-12.82-38.157 0-34.92 28.408-63.334 63.334-63.334m0-12.666c-41.907 0-76 34.098-76 76 0 41.907 34.093 76 76 76 41.902 0 76-34.093 76-76 0-41.902-34.098-76-76-76" id="c"></path></defs><g fill="none" fill-rule="evenodd"><g transform="translate(201.868 19.442)"><mask id="b" fill="#fff"><use xlink:href="#a"></use></mask><g mask="url(#b)" fill="#262861"><path d="M-1.77-19.507h427v153h-427z"></path></g></g><mask id="d" fill="#fff"><use xlink:href="#c"></use></mask><use fill="#6138D8" xlink:href="#c"></use><g mask="url(#d)" fill="#6138D8"><path d="M0 0h152v152H0z"></path></g></g></svg>